<?xml version="1.0" standalone="no"?>
<!DOCTYPE svg PUBLIC "-//W3C//DTD SVG 20010904//EN"
 "http://www.w3.org/TR/2001/REC-SVG-20010904/DTD/svg10.dtd">
<svg version="1.0" xmlns="http://www.w3.org/2000/svg"
 width="114.000000pt" height="126.000000pt" viewBox="0 0 114.000000 126.000000"
 preserveAspectRatio="xMidYMid meet">
<metadata>
Created by potrace 1.16, written by Peter Selinger 2001-2019
</metadata>
<g transform="translate(0.000000,126.000000) scale(0.100000,-0.100000)"
fill="#000000" stroke="none">
<path d="M503 1013 c-12 -2 -36 -20 -53 -39 -24 -28 -30 -44 -30 -80 0 -25 5
-54 11 -66 9 -16 7 -23 -9 -34 -11 -8 -28 -34 -37 -58 -16 -42 -19 -44 -68
-50 -81 -11 -112 -29 -130 -73 -13 -33 -23 -41 -57 -52 -30 -9 -40 -17 -38
-29 3 -12 13 -17 36 -15 33 1 33 1 30 -40 -3 -39 -1 -42 25 -45 26 -3 27 -2
27 42 0 47 18 76 48 76 9 0 34 3 55 6 l37 7 0 -37 c0 -29 4 -36 20 -36 15 0
20 7 20 28 0 38 13 54 41 50 18 -2 25 -10 27 -30 2 -18 9 -28 20 -29 9 0 -11
-7 -44 -14 -86 -18 -124 -40 -124 -69 0 -13 -7 -30 -17 -37 -9 -8 -24 -26 -33
-42 l-17 -28 5 49 c8 83 -40 83 -87 0 -16 -28 -32 -45 -35 -39 -11 17 -44 13
-55 -7 -14 -26 -29 -121 -24 -144 4 -14 13 -18 31 -16 21 2 33 17 64 78 21 41
36 63 32 48 -3 -16 -3 -40 0 -54 10 -39 45 -28 82 28 l32 47 6 -30 c6 -33 37
-39 73 -14 18 13 22 13 33 0 19 -23 39 -18 70 15 23 24 29 27 34 14 4 -10 16
-15 33 -13 16 1 37 -2 47 -6 20 -9 40 9 76 64 15 23 15 23 15 -11 0 -31 2 -33
33 -32 21 1 32 -3 32 -12 0 -21 38 -17 71 7 l29 20 0 -31 c0 -45 33 -37 41 10
8 48 53 133 94 179 39 42 45 71 17 71 -11 0 -38 -25 -64 -59 -39 -49 -50 -58
-71 -54 -18 4 -37 -6 -76 -41 -28 -25 -54 -46 -56 -46 -2 0 1 13 6 30 6 16 9
37 7 47 -2 10 5 25 16 34 26 21 16 70 -14 62 -11 -3 -36 -2 -55 1 -30 6 -35
11 -35 34 0 27 2 27 63 29 64 2 97 -3 96 -15 -1 -4 -1 -17 0 -29 2 -35 21 -27
21 8 0 44 17 27 24 -26 6 -37 11 -45 28 -45 19 0 20 4 15 44 -6 45 -6 45 26
48 24 2 32 8 32 23 0 16 -8 21 -40 25 -36 4 -42 10 -61 50 -23 48 -40 56 -116
59 -31 1 -38 5 -38 21 0 12 -11 32 -25 46 -20 20 -23 29 -15 44 18 33 12 105
-11 134 -37 47 -81 62 -146 49z m97 -68 c49 -52 11 -135 -61 -135 -37 0 -79
42 -79 80 0 69 92 106 140 55z m32 -197 c17 -14 38 -69 38 -99 0 -38 -30 -19
-41 25 l-11 45 -55 7 c-80 10 -103 -4 -103 -61 0 -44 -1 -45 -31 -45 -26 0
-29 3 -25 20 3 11 9 30 12 43 19 78 18 77 113 77 55 0 93 -5 103 -12z m43
-316 c20 -7 20 -7 -2 -29 -13 -12 -23 -18 -23 -13 0 23 -35 7 -72 -32 -34 -37
-39 -40 -33 -18 18 79 18 80 -2 80 -13 0 -33 -19 -57 -55 -20 -30 -38 -55 -41
-55 -2 0 3 16 11 35 19 46 18 55 -6 55 -11 0 -26 -12 -34 -27 -8 -16 -26 -39
-41 -53 l-26 -25 3 55 c3 50 5 54 33 62 82 23 245 34 290 20z"/>
<path d="M1042 448 c-7 -7 -12 -20 -12 -30 0 -15 -3 -16 -19 -7 -22 14 -49 6
-58 -18 -4 -9 -15 -25 -25 -35 -23 -23 -21 -86 3 -101 25 -16 66 0 85 33 11
18 28 30 43 32 16 2 27 10 29 21 3 15 0 18 -18 12 -15 -5 -26 -2 -31 6 -13 21
-11 35 3 21 28 -28 78 -7 78 33 0 27 -18 45 -45 45 -12 0 -26 -5 -33 -12z"/>
</g>
</svg>
